<!-- Generated by IcoMoon.io -->
<svg version="1.1" xmlns="http://www.w3.org/2000/svg" width="1024" height="1024" viewBox="0 0 1024 1024">
<title></title>
<g id="icomoon-ignore">
</g>
<path d="M508.416 529.217c79.36 0 143.872-64.512 143.872-143.872s-64.512-143.872-143.872-143.872-143.872 64-143.872 143.36c0 79.872 64.512 144.384 143.872 144.384zM507.904 279.873c58.368 0 105.472 47.104 105.472 105.472s-47.104 105.472-105.472 105.472c-58.368 0-105.472-47.104-105.472-105.472s47.104-105.472 105.472-105.472zM508.416 874.817c0 0 271.872-299.52 286.208-492.032 13.824-182.272-128-330.752-286.208-330.752s-297.472 148.48-286.208 330.752c11.776 187.904 286.208 492.032 286.208 492.032zM507.904 94.017c136.704 0 259.072 130.048 247.296 289.792-12.288 168.96-247.296 431.616-247.296 431.616s-237.568-267.264-247.296-431.616c-10.24-159.744 110.592-289.792 247.296-289.792zM659.456 736.577c-7.68 10.24-15.36 19.968-23.040 29.696 74.752 16.384 124.928 46.592 124.928 81.408 0 52.224-113.664 94.72-253.44 94.72s-253.44-42.496-253.44-94.72c0-34.816 50.176-65.024 124.928-81.408-7.68-9.728-15.36-19.456-23.040-29.696-86.016 22.528-143.36 64-143.36 111.104 0 71.68 132.096 129.536 294.912 129.536s294.912-57.856 294.912-129.536c0-47.104-57.856-88.576-143.36-111.104z"></path>
</svg>
