<!-- Generated by IcoMoon.io -->
<svg version="1.1" xmlns="http://www.w3.org/2000/svg" width="1024" height="1024" viewBox="0 0 1024 1024">
<title></title>
<g id="icomoon-ignore">
</g>
<path d="M409.457 615.419c78.904 78.496 170.274 153.565 206.149 117.282 51.36-51.822 82.952-96.965 196.915-5.896 113.942 91.177 26.941 152.481-22.839 202.703-57.416 57.985-272.372 4.049-485.448-207.836-213.022-211.992-268.484-427.021-211.015-484.986 49.761-50.222 110.302-137.899 202.047-24.365 91.725 113.481 46.99 145.555-4.37 197.376-35.855 36.23 39.656 127.192 118.56 205.741v0zM523.935 240.789c0 0-23.796-3.694-40.472 13.036-17.191 17.191-17.901 46.796 0.161 64.945 10.674 10.727 25.75 12.982 25.75 12.982 29.391 5.487 73.684 14.883 120.781 62.087s56.439 91.585 61.926 121.029c0 0 2.309 15.13 12.982 25.804 18.061 18.115 47.666 17.332 64.804 0.214 16.676-16.73 12.982-40.633 12.982-40.633-9.342-59.618-38.164-121.899-87.677-171.519-49.567-49.674-111.687-78.549-171.198-87.944v0zM747.309 276.449c86.345 86.506 123.177 184.749 111.172 264.329 0 0-4.156 25.235 12.253 41.717 18.47 18.523 47.807 17.439 65.105 0.161 11.135-11.189 13.551-29.304 13.551-29.304 9.911-68.799-2.556-207.18-137.083-342.008-134.58-134.828-272.64-147.295-341.225-137.404 0 0-18.061 2.416-29.197 13.551-17.298 17.332-18.362 46.743 0.161 65.266 16.408 16.462 41.556 12.253 41.556 12.253 79.312-12.059 177.308 24.88 263.706 111.44v0z"></path>
</svg>
